<?xml version="1.0" standalone="no"?>
<!DOCTYPE svg PUBLIC "-//W3C//DTD SVG 20010904//EN"
 "http://www.w3.org/TR/2001/REC-SVG-20010904/DTD/svg10.dtd">
<svg version="1.0" xmlns="http://www.w3.org/2000/svg"
 width="640.000000pt" height="640.000000pt" viewBox="0 0 640.000000 640.000000"
 preserveAspectRatio="xMidYMid meet">
<metadata>
Created by potrace 1.14, written by Peter Selinger 2001-2017
</metadata>
<g transform="translate(0.000000,640.000000) scale(0.100000,-0.100000)"
fill="#000000" stroke="none">
<path d="M2661 6087 c-7 -7 -11 -90 -11 -244 l0 -233 -38 -25 c-20 -13 -57
-27 -81 -30 -24 -3 -51 -10 -61 -15 -10 -6 -26 -7 -34 -4 -9 3 -16 1 -16 -5 0
-6 -6 -11 -14 -11 -8 0 -16 -5 -18 -11 -2 -5 -12 -11 -22 -13 -10 -1 -24 -9
-30 -17 -15 -19 -52 -39 -71 -39 -18 0 -20 -21 -2 -39 10 -10 7 -12 -13 -9
-14 1 -25 -2 -25 -8 0 -5 -17 -25 -37 -43 -21 -18 -38 -39 -38 -46 0 -7 -7
-18 -15 -25 -30 -25 -61 -97 -74 -170 -7 -41 -17 -94 -22 -117 -5 -23 -9 -107
-9 -187 0 -134 2 -150 25 -202 14 -31 32 -62 39 -68 8 -6 30 -42 49 -79 20
-40 44 -73 58 -80 21 -11 28 -8 57 21 36 34 30 44 -9 13 -27 -20 -45 -17 -72
13 -28 32 -77 139 -72 156 2 8 7 28 9 44 3 17 19 49 36 72 16 23 26 44 20 46
-5 1 -11 20 -13 40 -4 33 -1 39 24 50 16 7 29 21 29 30 0 10 7 18 15 18 11 0
14 -7 9 -25 -4 -15 -2 -25 5 -25 6 0 11 19 11 44 0 52 20 74 21 24 0 -18 3
-27 6 -19 3 7 23 32 45 55 22 22 46 56 54 74 18 40 43 41 66 5 l17 -28 1 25
c1 22 2 23 13 9 13 -17 52 -35 42 -19 -3 5 -1 18 4 27 10 17 10 17 11 0 0 -17
86 -107 102 -107 21 0 98 -97 98 -123 0 -17 -43 -31 -70 -22 -26 8 -32 -5 -39
-74 -1 -11 -25 -13 -127 -9 -114 4 -127 3 -137 -14 -7 -10 -17 -18 -24 -18 -9
0 -13 -21 -13 -72 -1 -40 -5 -92 -9 -115 -6 -29 -4 -50 4 -67 11 -21 10 -27
-19 -54 -17 -16 -44 -54 -59 -83 -15 -30 -39 -69 -53 -88 -13 -19 -22 -36 -20
-39 6 -5 152 -58 211 -76 30 -10 48 -25 73 -62 21 -30 32 -57 29 -70 -3 -16 4
-29 25 -44 41 -30 38 -93 -3 -67 -16 10 -21 8 -35 -11 -8 -12 -20 -20 -25 -17
-5 4 -9 2 -9 -3 0 -10 23 -22 41 -22 5 0 9 7 9 15 0 8 7 15 15 15 8 0 14 -5
13 -11 -6 -24 22 -19 28 5 8 34 21 33 37 -1 6 -16 28 -43 47 -60 29 -27 32
-35 20 -43 -14 -9 -54 -4 -75 9 -5 4 -28 13 -50 20 -22 7 -49 16 -60 21 -89
40 -306 130 -314 130 -5 0 -16 9 -24 21 -9 12 -17 16 -21 10 -14 -21 16 -52
94 -97 74 -42 125 -83 122 -97 -1 -4 10 -18 23 -33 19 -21 22 -30 14 -45 -10
-20 -9 -22 41 -33 37 -9 48 -18 55 -48 7 -26 5 -27 -24 -23 -18 2 -76 36 -140
81 -117 83 -246 143 -265 124 -15 -15 27 -46 74 -56 19 -3 29 -9 23 -11 -17
-6 -17 -23 0 -23 8 0 19 -11 25 -25 6 -14 17 -26 24 -26 7 -1 20 -2 28 -3 8 0
19 -11 25 -23 5 -13 17 -23 26 -23 21 0 32 -27 16 -37 -17 -11 -55 -4 -104 18
-23 10 -59 22 -80 25 -21 3 -41 8 -45 11 -5 2 -8 -1 -8 -8 0 -7 -10 -9 -25 -7
-14 3 -25 2 -25 -2 0 -13 -48 -29 -69 -23 -11 3 -40 -4 -64 -15 -57 -27 -112
-26 -159 4 -45 29 -40 28 -66 6 -16 -14 -18 -22 -10 -30 13 -13 20 -45 9 -38
-11 7 -25 -6 -50 -46 -12 -21 -20 -42 -16 -48 3 -5 2 -10 -4 -10 -9 0 -27 -56
-23 -72 1 -5 -3 -8 -10 -8 -6 0 -9 -3 -5 -6 3 -4 -9 -37 -28 -75 -19 -38 -35
-75 -35 -84 0 -20 -8 -19 -47 4 -17 11 -34 30 -38 43 -22 78 -49 110 -98 113
-4 0 -24 13 -44 30 -20 16 -46 30 -57 30 -11 1 -22 7 -24 13 -9 29 -37 5 -92
-79 -64 -97 -70 -120 -44 -158 10 -13 18 -39 20 -58 3 -39 62 -118 97 -129 12
-4 28 -14 35 -23 11 -14 12 -13 6 8 -4 17 -3 21 6 16 7 -5 41 -7 76 -6 35 1
65 -3 69 -9 3 -6 11 -7 17 -4 6 4 8 -2 3 -17 -3 -13 -9 -31 -11 -40 -3 -9 0
-28 6 -43 9 -23 5 -31 -30 -69 -22 -23 -40 -38 -40 -33 0 6 -11 -5 -25 -24
-14 -19 -25 -30 -25 -24 0 20 -20 -22 -20 -44 0 -13 -4 -20 -10 -17 -5 3 -10
1 -10 -4 0 -6 -7 -11 -17 -11 -15 0 -15 -1 0 -18 16 -17 15 -18 -18 -17 l-34
2 14 -33 c11 -27 11 -32 0 -28 -7 3 -16 0 -21 -7 -4 -7 -3 -14 3 -16 13 -5 5
-43 -9 -43 -5 0 -6 -5 -3 -10 3 -6 -1 -13 -10 -16 -13 -5 -14 -8 -3 -15 11 -7
10 -10 -1 -21 -11 -11 -13 -11 -6 1 5 9 3 12 -6 9 -7 -2 -13 -15 -13 -29 0
-13 -7 -29 -15 -35 -12 -10 -12 -13 4 -21 16 -9 15 -11 -13 -18 -18 -3 -30
-11 -27 -16 4 -5 -1 -6 -9 -3 -9 3 -16 1 -16 -6 0 -7 -6 -6 -16 4 -21 22 -29
20 -48 -8 -12 -19 -22 -24 -42 -20 -17 3 -23 1 -19 -6 4 -6 1 -17 -5 -25 -9
-11 -9 -15 -1 -15 15 0 13 -11 -5 -35 -15 -20 -15 -20 -30 -1 -11 16 -14 17
-14 4 0 -8 -7 -21 -16 -28 -8 -8 -19 -21 -25 -31 -7 -15 -6 -17 6 -13 8 4 15
12 15 19 0 7 7 18 15 25 10 9 8 -1 -7 -29 -12 -22 -29 -41 -38 -41 -21 0 -40
-20 -40 -41 0 -9 -13 -22 -29 -29 -16 -6 -37 -20 -46 -30 -15 -17 -15 -19 2
-29 11 -6 13 -11 5 -11 -7 0 -10 -5 -6 -12 4 -6 3 -8 -3 -5 -12 8 -53 -25 -53
-42 0 -6 -4 -11 -10 -11 -5 0 -10 -6 -10 -13 0 -7 -9 -18 -20 -25 -11 -7 -20
-17 -20 -23 0 -6 5 -7 13 -2 18 11 38 13 31 1 -3 -5 -8 -7 -11 -5 -6 7 -53
-38 -53 -52 0 -6 -4 -11 -10 -11 -5 0 -10 -6 -10 -14 0 -8 -5 -18 -12 -22 -7
-5 -8 -3 -3 6 5 9 4 11 -3 6 -7 -4 -17 -17 -23 -29 -9 -18 -9 -20 2 -10 18 18
39 16 39 -3 0 -14 -3 -14 -15 -4 -14 11 -19 7 -16 -12 1 -9 -27 1 -56 20 -14
8 -20 19 -16 29 4 11 2 14 -5 9 -7 -4 -12 -3 -12 2 0 16 -65 42 -104 42 -45 0
-47 -16 -6 -86 30 -53 103 -125 154 -151 37 -19 157 -13 201 10 17 8 52 42 77
74 26 32 99 112 162 178 64 66 116 124 116 129 0 5 18 37 40 70 49 76 143 274
202 426 25 63 69 177 99 253 29 75 56 136 59 135 4 -2 37 -39 75 -83 37 -44
72 -84 76 -89 11 -12 182 155 222 217 17 26 34 44 38 40 4 -5 40 -71 79 -148
47 -93 83 -151 108 -174 20 -18 58 -53 84 -77 26 -24 44 -45 40 -48 -6 -4 -8
-39 -3 -104 0 -13 5 -21 10 -17 5 3 13 0 17 -6 4 -8 3 -9 -4 -5 -7 4 -12 2
-12 -4 0 -42 167 -601 205 -685 7 -16 21 -50 32 -75 10 -24 35 -71 56 -103 36
-57 80 -145 128 -259 25 -61 43 -76 34 -31 -2 16 1 30 8 35 8 5 6 8 -6 8 -15
0 -16 3 -6 23 6 12 8 19 4 15 -4 -4 -15 1 -25 10 -18 18 -33 62 -21 62 4 0 8
7 8 15 0 8 -4 15 -9 15 -5 0 -1 11 8 25 9 14 12 25 6 25 -6 0 -15 -7 -20 -16
-8 -15 -10 -15 -15 0 -4 10 -3 15 3 11 6 -3 10 -1 10 4 0 6 -7 11 -16 11 -10
0 -14 6 -10 15 3 9 0 15 -10 15 -9 0 -14 7 -12 18 1 10 -5 30 -14 44 -14 20
-14 27 -4 31 8 3 11 16 8 36 -2 17 -8 28 -13 25 -15 -9 -10 14 7 30 14 15 14
16 -3 16 -13 1 -10 5 12 17 l30 17 -27 10 c-15 5 -30 16 -33 24 -4 12 -3 13
10 2 18 -15 20 1 3 18 -9 9 -8 12 4 12 9 0 25 13 34 30 14 22 21 27 31 19 7
-6 21 -8 30 -4 39 17 49 13 44 -18 -2 -14 29 -67 40 -67 6 0 18 7 27 16 15 15
17 15 36 -7 15 -19 18 -20 12 -5 -6 16 -4 17 10 6 9 -8 14 -23 11 -37 -3 -17
0 -23 14 -23 13 0 17 -5 12 -17 -5 -12 -2 -15 10 -10 9 3 17 2 17 -3 0 -6 -4
-10 -9 -10 -5 0 -11 -6 -14 -14 -6 -14 16 -16 29 -3 21 20 26 -14 9 -61 -3 -7
-1 -11 4 -8 5 3 11 -1 15 -9 8 -21 26 -19 26 3 1 15 2 15 15 -2 8 -11 11 -22
6 -25 -4 -3 -11 -17 -15 -31 -5 -17 -4 -20 2 -12 7 11 10 11 15 -2 4 -9 2 -16
-3 -16 -5 0 -7 -7 -4 -15 4 -8 10 -13 14 -10 15 9 19 -38 4 -52 -19 -19 -18
-29 1 -13 13 11 15 8 15 -13 0 -19 -4 -25 -15 -21 -8 4 -15 1 -15 -6 0 -6 4
-9 9 -5 10 6 41 -21 41 -36 0 -5 -5 -9 -11 -9 -7 0 -5 -10 5 -25 9 -13 16 -28
16 -32 0 -4 -4 -2 -9 6 -16 25 -38 21 -35 -5 1 -12 5 -27 8 -32 3 -5 -3 -17
-14 -27 -18 -16 -20 -16 -20 -2 0 10 -7 17 -15 17 -14 0 -14 -3 0 -24 11 -16
13 -26 6 -31 -6 -3 -11 1 -11 10 0 9 -5 13 -11 9 -6 -3 -9 -15 -6 -25 3 -11 1
-17 -4 -13 -5 3 -9 -2 -9 -10 0 -9 -3 -15 -7 -15 -24 4 -43 -3 -40 -13 1 -7
-3 -12 -9 -11 -6 1 -31 3 -55 4 -24 1 -49 6 -56 11 -16 13 -23 -4 -10 -23 7
-8 28 -26 48 -40 20 -13 36 -26 36 -29 0 -7 11 -48 31 -108 10 -33 21 -51 29
-48 6 3 21 -7 32 -22 18 -25 19 -25 14 -4 -3 12 -10 22 -15 22 -5 0 -6 10 -2
23 4 12 7 27 6 32 0 6 -3 31 -6 57 -4 35 -2 51 10 62 39 40 63 2 109 -175 14
-57 35 -129 45 -159 20 -62 80 -303 105 -425 22 -104 37 -139 30 -65 -12 111
-15 129 -41 236 -14 60 -28 126 -30 147 -2 21 -7 43 -10 49 -4 6 -9 36 -11 67
-2 30 -8 60 -13 66 -4 5 -10 26 -13 45 -3 19 -10 55 -16 80 -20 86 -28 140
-21 140 9 0 135 -470 154 -575 8 -44 18 -131 21 -192 l8 -113 1274 0 1274 0
-6 783 c-4 430 -8 796 -11 812 -2 17 -7 1023 -11 2236 l-6 2205 -681 12 c-928
17 -2053 41 -2153 46 -50 2 -85 0 -92 -7z m-111 -1007 c0 -5 -2 -10 -4 -10 -3
0 -8 5 -11 10 -3 6 -1 10 4 10 6 0 11 -4 11 -10z m350 -400 c0 -5 -4 -10 -10
-10 -5 0 -10 5 -10 10 0 6 5 10 10 10 6 0 10 -4 10 -10z m-275 -87 c16 -15 13
-18 -44 -41 -33 -13 -81 -42 -106 -64 -37 -33 -48 -38 -60 -28 -13 11 -12 16
6 42 25 35 83 75 136 94 49 17 49 17 68 -3z m245 -33 c0 -5 -2 -10 -4 -10 -3
0 -8 5 -11 10 -3 6 -1 10 4 10 6 0 11 -4 11 -10z m-310 -56 c-25 -14 -54 -33
-65 -42 -20 -17 -20 -17 0 7 11 12 36 31 55 42 53 28 61 22 10 -7z m-219 -160
c-5 -16 -10 -21 -10 -12 -1 18 10 51 15 45 2 -1 -1 -16 -5 -33z m-11 -70 c0
-14 -4 -23 -9 -20 -5 3 -7 15 -4 26 7 28 13 25 13 -6z m-56 -490 c9 -3 16 -12
16 -20 0 -12 -4 -12 -20 -2 -30 19 -27 34 4 22z m672 -112 c-2 -4 -7 -30 -10
-57 -20 -164 -17 -159 -84 -163 -85 -6 -92 -7 -92 -15 0 -8 -76 -4 -85 4 -2 3
5 10 15 17 12 7 20 8 20 2 0 -6 9 -6 26 0 14 6 30 8 35 4 5 -3 9 -1 9 5 0 5 9
12 19 16 32 10 78 64 96 112 10 26 25 54 34 65 16 18 26 25 17 10z m-257 -18
c2 -2 2 -7 -2 -10 -8 -9 -47 6 -47 17 0 9 37 3 49 -7z m101 -43 c13 -13 9 -14
-29 -8 -24 3 -49 11 -55 17 -8 8 -4 9 18 0 24 -9 27 -8 23 4 -7 18 20 10 43
-13z m-160 -2 c0 -11 -4 -17 -10 -14 -5 3 -10 1 -10 -4 0 -6 -7 -11 -15 -11
-21 0 -19 9 8 31 28 23 27 23 27 -2z m-840 -223 c-11 -18 -31 -63 -45 -99 -14
-37 -38 -86 -55 -109 -31 -42 -289 -328 -297 -328 -12 0 12 43 39 70 18 18 28
36 24 46 -3 8 -2 13 3 10 5 -4 21 14 36 39 18 32 25 57 24 88 -2 47 55 180
108 252 26 35 37 42 99 56 38 8 73 14 77 11 4 -2 -1 -18 -13 -36z m1130 28 c0
-2 -7 -4 -15 -4 -8 0 -15 4 -15 10 0 5 7 7 15 4 8 -4 15 -8 15 -10z m110 -49
c0 -9 -51 2 -54 12 -4 9 3 9 25 1 16 -5 29 -11 29 -13z m55 -94 c-9 -30 -25
-17 -22 19 2 25 4 27 16 16 8 -8 10 -22 6 -35z m65 -52 c26 -14 32 -16 53 -18
7 0 29 -14 47 -31 18 -16 43 -30 54 -31 27 0 102 -8 143 -15 18 -2 54 -22 82
-44 27 -22 60 -42 73 -45 35 -9 140 -108 133 -126 -3 -8 1 -34 9 -57 19 -53
11 -255 -13 -315 -6 -16 -9 -33 -5 -38 3 -5 0 -9 -5 -9 -6 0 -10 -3 -9 -7 4
-16 -13 -83 -21 -83 -5 0 -9 -10 -8 -22 1 -32 -5 -49 -25 -70 -10 -10 -18 -25
-18 -34 0 -14 2 -14 22 0 37 26 53 21 32 -11 -22 -34 -47 -56 -104 -89 -67
-40 -82 -55 -69 -70 7 -8 7 -14 -1 -19 -5 -3 -10 1 -10 10 0 10 -7 15 -17 13
-24 -5 -28 -28 -4 -28 11 0 23 -5 27 -11 4 -8 9 -7 15 2 4 8 6 -10 4 -40 -2
-31 -9 -57 -17 -62 -10 -7 -10 -12 -1 -27 10 -17 6 -25 -28 -60 -38 -38 -55
-75 -43 -93 8 -14 71 34 106 82 26 35 33 40 36 25 7 -35 -102 -219 -120 -201
-2 3 -11 -6 -18 -20 -7 -14 -17 -25 -22 -25 -12 0 -9 -40 8 -85 21 -57 23 -68
31 -180 18 -227 4 -289 -74 -354 -45 -37 -105 -48 -190 -34 -66 12 -186 62
-165 70 6 3 31 -5 55 -16 23 -11 64 -23 90 -25 26 -3 52 -8 57 -11 5 -3 27 -1
49 5 31 8 50 24 90 74 29 37 45 66 39 68 -8 3 -4 17 11 42 19 30 22 45 17 79
-16 99 -133 325 -202 389 -38 36 -154 95 -201 104 -41 7 -87 45 -134 108 -28
37 -28 39 -12 70 24 47 26 50 58 97 28 42 65 109 65 117 0 14 -40 -34 -97
-115 -35 -51 -68 -93 -73 -93 -17 0 -21 41 -9 78 25 73 19 81 -28 40 -21 -20
-21 -20 -32 1 -7 11 -16 20 -20 18 -9 -2 -19 10 -128 173 l-64 95 23 15 c67
44 168 165 168 203 0 6 9 27 20 45 11 18 25 65 31 105 11 77 50 236 74 302 14
38 14 39 15 10 0 -51 3 -64 13 -58 6 4 8 0 4 -10 -3 -10 -2 -17 4 -17 13 0 8
52 -6 62 -6 4 -2 8 8 8 12 0 16 4 11 13 -4 6 -4 9 1 5 11 -11 48 40 39 54 -4
7 1 6 12 -3 21 -17 32 -18 52 -6 7 5 12 4 12 -2 0 -6 -11 -18 -25 -27 -19 -12
-28 -14 -38 -5 -14 11 -27 5 -27 -11 0 -5 4 -7 9 -4 4 3 16 -3 26 -14 15 -17
16 -22 4 -37 -8 -9 -9 -14 -3 -10 7 4 14 -3 16 -18 4 -20 1 -27 -18 -31 -25
-7 -27 -11 -24 -60 1 -18 -3 -35 -9 -39 -14 -8 -14 -55 -1 -55 6 0 10 -7 10
-16 0 -10 5 -14 16 -10 9 3 12 2 9 -5 -12 -18 -13 -60 -2 -56 6 2 32 42 58 89
25 48 63 101 83 118 37 33 44 54 25 80 -9 12 -10 12 -5 -4 5 -14 3 -17 -11
-11 -10 4 -25 8 -34 9 -15 0 -15 3 -3 21 8 12 11 25 7 30 -5 4 0 5 9 2 10 -3
20 -1 24 5 4 7 3 8 -4 4 -7 -4 -12 -2 -12 3 0 6 7 11 16 11 11 0 14 5 10 16
-5 14 -4 15 9 4 9 -7 18 -10 22 -6 3 3 1 6 -6 6 -6 0 -11 7 -9 16 2 10 -3 19
-11 22 -8 3 -11 0 -7 -7 13 -20 -3 -12 -33 18 -27 26 -33 28 -56 18 -14 -7
-28 -21 -32 -32 -6 -19 -7 -18 -14 5 -5 19 -7 20 -8 6 -1 -17 -3 -17 -21 4
-15 17 -17 27 -10 34 8 8 13 7 19 -2 13 -21 39 -4 34 22 -3 13 2 37 11 52 15
28 16 29 22 7 3 -13 10 -21 14 -18 5 3 15 -4 22 -14 10 -14 21 -18 36 -14 27
7 29 23 3 23 -24 0 -51 26 -51 48 0 14 3 13 18 -4 9 -12 28 -28 42 -35z m-395
-75 c-7 -63 -30 -104 -60 -104 -5 0 -28 -9 -50 -21 -21 -12 -54 -22 -72 -22
l-34 -1 27 -14 c36 -19 124 -9 142 15 16 23 16 8 -3 -92 -8 -44 -22 -131 -30
-194 -16 -122 -37 -180 -88 -248 -33 -43 -51 -53 -60 -30 -3 6 -31 75 -62 152
-31 77 -70 176 -85 220 -15 44 -46 124 -69 177 -42 100 -50 151 -28 182 11 16
17 12 66 -38 50 -54 58 -57 121 -60 80 -3 204 46 238 95 7 10 19 25 27 33 8 8
15 21 16 28 0 11 2 11 6 0 3 -8 2 -43 -2 -78z m265 36 c0 -5 -5 -10 -11 -10
-5 0 -7 5 -4 10 3 6 8 10 11 10 2 0 4 -4 4 -10z m-1910 -20 c0 -5 -5 -10 -11
-10 -5 0 -7 5 -4 10 3 6 8 10 11 10 2 0 4 -4 4 -10z m14 -31 c-6 -11 -31 -12
-37 -1 -3 4 6 8 19 8 13 1 21 -2 18 -7z m1804 -9 c-11 -18 -28 -27 -28 -16 0
16 14 36 26 36 12 0 12 -4 2 -20z m-1723 -20 c-3 -5 -14 -10 -23 -10 -15 0
-15 2 -2 10 20 13 33 13 25 0z m1735 -34 c0 -2 -7 -7 -16 -10 -8 -3 -12 -2 -9
4 6 10 25 14 25 6z m-1773 -22 c-3 -3 -12 -4 -19 -1 -8 3 -5 6 6 6 11 1 17 -2
13 -5z m223 -15 c0 -5 -7 -9 -15 -9 -15 0 -20 12 -9 23 8 8 24 -1 24 -14z
m1645 11 c3 -5 1 -10 -4 -10 -6 0 -11 5 -11 10 0 6 2 10 4 10 3 0 8 -4 11 -10z
m-1605 -25 c0 -8 -4 -15 -9 -15 -13 0 -22 16 -14 24 11 11 23 6 23 -9z m-85
-16 c-4 -5 -13 -9 -21 -9 -12 0 -12 2 -2 14 14 15 32 11 23 -5z m120 11 c-3
-5 -11 -10 -16 -10 -6 0 -7 5 -4 10 3 6 11 10 16 10 6 0 7 -4 4 -10z m1562
-12 c-3 -8 -6 -5 -6 6 -1 11 2 17 5 13 3 -3 4 -12 1 -19z m-1637 -7 c0 -12
-20 -25 -27 -18 -7 7 6 27 18 27 5 0 9 -4 9 -9z m40 -10 c0 -12 -20 -25 -27
-18 -7 7 6 27 18 27 5 0 9 -4 9 -9z m-85 -32 c-10 -15 -25 -10 -19 6 4 8 10
12 15 9 5 -3 7 -10 4 -15z m564 -158 c11 -36 18 -67 15 -70 -7 -7 -133 129
-134 143 0 4 19 31 43 59 l42 51 7 -60 c4 -32 16 -88 27 -123z m-524 149 c-3
-5 -11 -10 -16 -10 -6 0 -7 5 -4 10 3 6 11 10 16 10 6 0 7 -4 4 -10z m27 -12
c-7 -7 -12 -8 -12 -2 0 14 12 26 19 19 2 -3 -1 -11 -7 -17z m768 -544 c0 -14
-3 -14 -15 -4 -8 7 -15 14 -15 16 0 2 7 4 15 4 8 0 15 -7 15 -16z m85 -24 c8
-13 -5 -13 -25 0 -13 8 -13 10 2 10 9 0 20 -4 23 -10z m-135 -94 c0 -8 -6 -18
-12 -22 -7 -4 -10 -4 -6 1 4 4 3 14 -3 22 -9 10 -8 13 5 13 9 0 16 -6 16 -14z
m-1260 -116 c0 -11 -4 -20 -9 -20 -5 0 -7 9 -4 20 3 11 7 20 9 20 2 0 4 -9 4
-20z m95 -1 c3 -4 -5 -9 -19 -11 -14 -3 -27 0 -29 6 -5 12 36 16 48 5z m1329
-214 c13 -20 14 -25 2 -25 -7 0 -16 11 -18 25 -3 14 -4 25 -3 25 2 0 10 -11
19 -25z m-24 -5 c0 -5 -4 -10 -10 -10 -5 0 -10 5 -10 10 0 6 5 10 10 10 6 0
10 -4 10 -10z m84 -21 c-7 -12 23 -18 35 -6 6 6 11 7 11 2 0 -6 -14 -18 -32
-28 -24 -14 -28 -15 -18 -2 10 11 10 15 0 15 -7 0 -10 7 -6 15 3 8 1 15 -5 15
-6 0 -7 5 -3 11 4 8 9 7 15 -2 4 -7 6 -16 3 -20z m40 -64 c3 3 2 -1 -4 -7 -15
-18 -12 -38 6 -38 8 0 12 5 9 10 -3 6 -1 10 4 10 6 0 11 -3 11 -7 0 -12 -16
-35 -24 -34 -23 3 -28 -1 -23 -21 6 -22 6 -22 -8 -4 -8 11 -12 22 -7 25 4 3 8
18 9 34 2 25 0 26 -19 16 -16 -9 -19 -8 -15 3 2 7 10 12 16 11 6 -2 11 2 11 8
0 8 4 9 13 0 8 -6 17 -9 21 -6z m-77 -47 c-3 -8 -6 -5 -6 6 -1 11 2 17 5 13 3
-3 4 -12 1 -19z m103 -42 c0 -2 -7 -7 -16 -10 -8 -3 -12 -2 -9 4 6 10 25 14
25 6z m-30 -36 c0 -5 -4 -10 -10 -10 -5 0 -10 5 -10 10 0 6 5 10 10 10 6 0 10
-4 10 -10z m28 -24 c-7 -8 -15 -12 -17 -11 -5 6 10 25 20 25 5 0 4 -6 -3 -14z
m-38 -27 c0 -6 -4 -7 -10 -4 -5 3 -10 11 -10 16 0 6 5 7 10 4 6 -3 10 -11 10
-16z m1 -71 c11 -20 10 -21 -3 -11 -8 7 -18 10 -22 6 -4 -4 -4 0 0 10 8 22 11
22 25 -5z m39 -12 c0 -3 -4 -8 -10 -11 -5 -3 -10 -1 -10 4 0 6 5 11 10 11 6 0
10 -2 10 -4z m-27 -111 c-3 -9 -8 -14 -10 -11 -3 3 -2 9 2 15 9 16 15 13 8 -4z
m497 -565 c0 -5 -2 -10 -4 -10 -3 0 -8 5 -11 10 -3 6 -1 10 4 10 6 0 11 -4 11
-10z"/>
<path d="M3463 3098 c-13 -16 -53 -95 -53 -104 0 -11 51 40 65 67 15 29 6 59
-12 37z"/>
<path d="M2985 3070 c3 -5 11 -10 16 -10 6 0 7 5 4 10 -3 6 -11 10 -16 10 -6
0 -7 -4 -4 -10z"/>
<path d="M2947 3032 c-3 -4 3 -13 14 -20 10 -7 19 -8 19 -3 0 13 -28 33 -33
23z"/>
<path d="M3126 2998 c3 -5 10 -6 15 -3 13 9 11 12 -6 12 -8 0 -12 -4 -9 -9z"/>
<path d="M3190 2959 c0 -5 5 -7 10 -4 6 3 10 8 10 11 0 2 -4 4 -10 4 -5 0 -10
-5 -10 -11z"/>
<path d="M3390 2930 c-6 -11 -7 -20 -2 -20 6 0 12 9 15 20 3 11 3 20 1 20 -2
0 -8 -9 -14 -20z"/>
<path d="M3638 2913 c7 -3 16 -2 19 1 4 3 -2 6 -13 5 -11 0 -14 -3 -6 -6z"/>
<path d="M3384 2838 l-29 -33 33 29 c30 28 37 36 29 36 -2 0 -16 -15 -33 -32z"/>
<path d="M3060 2240 c-17 -22 -29 -40 -27 -40 3 0 20 18 37 40 17 22 29 40 27
40 -3 0 -20 -18 -37 -40z"/>
<path d="M2196 4802 c-2 -4 -1 -14 5 -22 7 -12 9 -10 9 8 0 23 -5 28 -14 14z"/>
<path d="M6311 4754 c0 -11 3 -14 6 -6 3 7 2 16 -1 19 -3 4 -6 -2 -5 -13z"/>
<path d="M1909 4694 c-7 -9 -15 -43 -17 -77 l-4 -62 26 38 c31 43 41 45 67 15
26 -32 23 -8 -7 51 -26 53 -42 62 -65 35z"/>
<path d="M1977 4562 c-23 -3 -32 -13 -54 -60 -15 -31 -27 -61 -27 -66 -1 -5
14 -10 32 -12 26 -3 32 0 32 15 0 12 11 23 29 29 56 20 46 100 -12 94z"/>
<path d="M6322 4060 c0 -14 2 -19 5 -12 2 6 2 18 0 25 -3 6 -5 1 -5 -13z"/>
<path d="M6323 3960 c0 -36 2 -50 4 -32 2 17 2 47 0 65 -2 17 -4 3 -4 -33z"/>
<path d="M6324 3760 c0 -74 1 -105 3 -67 2 37 2 97 0 135 -2 37 -3 6 -3 -68z"/>
<path d="M6320 2927 c0 -423 4 -698 9 -702 9 -5 4 1385 -5 1394 -2 2 -4 -309
-4 -692z"/>
<path d="M1820 3589 c0 -5 -5 -7 -11 -3 -7 4 -10 1 -7 -6 2 -7 16 -14 31 -16
32 -3 32 -3 7 19 -11 9 -20 12 -20 6z"/>
<path d="M990 2360 c0 -5 5 -10 11 -10 5 0 7 5 4 10 -3 6 -8 10 -11 10 -2 0
-4 -4 -4 -10z"/>
<path d="M262 2219 c-25 -43 -25 -65 0 -27 15 23 32 68 26 68 -2 0 -13 -19
-26 -41z"/>
<path d="M1391 2213 c5 -14 7 -40 4 -57 -5 -23 -4 -27 4 -16 18 26 11 100 -10
100 -5 0 -4 -12 2 -27z"/>
<path d="M6325 1618 c7 -910 16 -1612 21 -1617 2 -3 10 1 16 7 15 15 32 16 23
2 -3 -6 -1 -10 4 -10 15 0 14 33 -1 49 -11 11 -10 12 1 6 11 -6 13 -4 8 9 -4
10 -7 22 -7 27 0 6 -4 8 -9 5 -5 -3 -8 6 -8 19 0 15 5 25 13 25 9 0 13 10 13
28 -2 23 -2 24 -6 5 -5 -27 -18 -30 -27 -7 -3 8 -2 12 4 9 6 -4 9 10 8 34 -1
23 -4 41 -8 41 -3 0 -6 15 -7 33 -1 17 1 24 4 15 2 -10 8 -18 13 -18 5 0 7 7
4 15 -4 8 -1 22 6 30 7 9 10 18 6 22 -3 3 -6 2 -6 -4 0 -6 -9 -13 -19 -16 -14
-3 -18 -1 -14 9 3 8 9 14 13 14 5 0 8 8 8 18 0 9 1 24 3 32 2 8 -2 14 -8 12
-7 -1 -13 5 -13 13 0 9 10 15 23 16 18 1 18 2 4 6 -11 3 -16 11 -13 18 3 10 0
12 -11 8 -13 -5 -15 -2 -9 13 10 24 10 34 1 57 -5 12 -2 17 11 17 11 0 15 4 9
8 -15 11 -18 29 -21 152 -3 93 -1 119 13 140 15 23 15 24 0 11 -15 -12 -17 -3
-17 110 -1 68 -1 131 -2 139 0 8 0 58 1 110 0 52 -2 212 -4 355 -2 143 -4 342
-4 443 -1 108 -5 182 -11 182 -6 0 -8 -220 -5 -592z"/>
<path d="M1896 2155 c6 -46 61 -273 71 -295 8 -20 10 -27 12 -45 0 -8 5 -15
10 -15 8 0 6 49 -5 82 -3 10 -1 18 5 18 6 0 11 5 11 10 0 5 -6 9 -12 7 -9 -1
-13 10 -13 33 0 19 -6 41 -13 49 -8 8 -11 22 -9 33 3 12 1 16 -6 12 -8 -5 -7
-2 1 7 12 13 18 38 5 26 -6 -7 -26 26 -49 83 l-14 35 6 -40z"/>
<path d="M1350 2062 c0 -21 -7 -36 -20 -44 -27 -17 -25 -30 2 -26 17 2 24 13
30 42 5 25 5 43 -2 50 -7 7 -10 0 -10 -22z"/>
<path d="M179 1943 c0 -5 -2 -23 -5 -41 -2 -19 0 -41 6 -50 7 -13 9 -2 10 41
0 31 -2 57 -5 57 -3 0 -5 -3 -6 -7z"/>
<path d="M2491 1660 c-7 -21 -17 -30 -32 -30 -17 0 -19 3 -10 14 7 8 8 17 3
20 -7 4 -32 -33 -32 -49 0 -7 65 7 77 17 6 5 9 17 6 26 -6 15 -5 16 12 2 17
-14 18 -14 6 8 -15 28 -17 28 -30 -8z"/>
<path d="M2532 1627 c11 -9 14 -17 8 -23 -6 -6 -2 -10 10 -10 17 0 18 3 6 20
-7 11 -19 22 -27 24 -9 2 -8 -1 3 -11z"/>
<path d="M2457 1416 c-4 -10 -12 -14 -19 -10 -10 6 -11 4 0 -7 14 -15 37 1 30
22 -3 9 -6 7 -11 -5z"/>
<path d="M2485 1330 c-3 -5 1 -10 9 -10 9 0 16 5 16 10 0 6 -4 10 -9 10 -6 0
-13 -4 -16 -10z"/>
<path d="M6366 727 c3 -10 9 -15 12 -12 3 3 0 11 -7 18 -10 9 -11 8 -5 -6z"/>
<path d="M2734 548 c7 -45 25 -76 21 -36 -1 13 -3 35 -4 51 0 15 -6 27 -12 27
-8 0 -9 -14 -5 -42z"/>
<path d="M2757 473 c-3 -5 -1 -17 4 -28 6 -17 7 -16 6 8 -1 28 -3 32 -10 20z"/>
</g>
</svg>
